<?xml version="1.0" encoding="utf-8"?>
<!-- Generator: Adobe Illustrator 15.1.0, SVG Export Plug-In . SVG Version: 6.00 Build 0)  -->
<!DOCTYPE svg PUBLIC "-//W3C//DTD SVG 1.1//EN" "http://www.w3.org/Graphics/SVG/1.1/DTD/svg11.dtd">
<svg version="1.1" id="Layer_1" xmlns="http://www.w3.org/2000/svg" xmlns:xlink="http://www.w3.org/1999/xlink" x="0px" y="0px"
	 width="340px" height="340px" viewBox="0 0 340 340" enable-background="new 0 0 340 340" xml:space="preserve">
<g>
	<defs>
		<path id="SVGID_1_" d="M15.148,2C7.887,2,2,7.887,2,15.148v309.704C2,332.114,7.887,338,15.148,338h309.704
			c7.262,0,13.148-5.886,13.148-13.148V15.148C338,7.887,332.113,2,324.852,2H15.148z"/>
	</defs>
	<clipPath id="SVGID_2_">
		<use xlink:href="#SVGID_1_"  overflow="visible"/>
	</clipPath>
	<path clip-path="url(#SVGID_2_)" fill="#E6E7E8" d="M338,324.853c0,7.262-5.887,13.147-13.147,13.147H15.147
		C7.887,338,2,332.114,2,324.853V15.148C2,7.886,7.887,2,15.147,2h309.706C332.113,2,338,7.886,338,15.148V324.853z"/>
	<path clip-path="url(#SVGID_2_)" fill="#414042" d="M382.394,242.222c-13.294-10.548-27.647-16.733-43.491-24.124
		c-16.222-7.564-34.751-17.5-52.609-22.889c-0.471-0.142-0.936-0.285-1.402-0.428v-9.814h20.854c1.241,0,2.38-0.698,2.957-1.798
		c0.561-1.105,0.464-2.444-0.246-3.451l-12.109-17.09h0.154c1.24,0,2.376-0.719,2.941-1.827c0.576-1.096,0.484-2.451-0.229-3.462
		l-9.39-13.261c0.425-0.305,0.781-0.71,1.032-1.192c0.574-1.096,0.482-2.419-0.242-3.432l-7.841-11.1
		c-0.62-0.877-1.632-1.398-2.705-1.398c-1.081,0-2.097,0.521-2.714,1.41l-7.846,11.088c-0.719,1.013-0.814,2.336-0.239,3.443
		c0.239,0.483,0.596,0.885,1.024,1.192l-9.38,13.258c-0.722,1.01-0.817,2.358-0.24,3.464c0.575,1.098,1.71,1.817,2.953,1.817h0.154
		l-6.99,9.856l-4.166-5.883h0.061c0.493,0,0.944-0.284,1.17-0.727c0.234-0.436,0.194-0.977-0.089-1.382l-3.743-5.279
		c0.171-0.124,0.313-0.283,0.412-0.478c0.229-0.436,0.191-0.964-0.096-1.368l-3.124-4.423c-0.245-0.349-0.654-0.555-1.078-0.555
		c-0.43,0-0.836,0.206-1.081,0.56l-3.127,4.418c-0.286,0.404-0.322,0.932-0.095,1.372c0.095,0.191,0.237,0.356,0.409,0.475
		l-3.743,5.285c-0.284,0.403-0.322,0.939-0.091,1.378c0.227,0.44,0.68,0.724,1.176,0.724h0.06l-4.829,6.817
		c-0.123,0.172-0.189,0.37-0.219,0.571c-0.049-0.031-0.101-0.061-0.153-0.093c-10.108-6.156-22.551-21.506-36.507-16.788
		c-3.568,1.204-5.726,1.983-5.903,6.702c-14.718,2.536-17.648-10.331-29.629-13.578c-5.292-1.433-11.759,0.828-17.188,0.049
		c-5.63-0.806-8.207-4.145-14.728-3.319c-0.028,0.625-0.055,1.246-0.083,1.864c-11.336-6.582-21.562-14.088-23.014-20.374
		c-3.435-14.898-52.961-59.842-52.961-59.842c11.794,99.462,55.256,138.919,95.366,132.044c4.411-0.755,8.016-1.776,10.944-2.992
		c10.846,8.473,20.494,19.164,32.092,26.332c8.563,5.296,17.771,5.287,26.875,8.639c10.721,3.95,21.411,10.047,31.779,14.986
		c24.57,11.713,50.806,20.227,74.855,33.004c24.632,13.09,68.984,24.986,85.905-2.037l1.146,3.442
		C414.366,255.407,397.766,254.428,382.394,242.222 M275.924,184.967v7.021c-6.604-2.127-13.07-4.395-19.438-7.021H275.924z
		 M254.647,175.506l-2.993,4.222c-0.613,0.884-0.738,1.981-0.382,2.986c-1.075-0.483-2.146-0.979-3.216-1.488v-5.72H254.647z
		 M244.484,175.506v3.968c-2.451-1.241-4.893-2.559-7.323-3.968H244.484z"/>
	<path clip-path="url(#SVGID_2_)" fill="#0A7A6F" d="M21.474,208.473c-7.757,28.283,59.75,71.452,150.786,96.423
		c91.029,24.97,171.115,22.285,178.874-5.996c7.761-28.282-59.751-71.451-150.783-96.423
		C109.32,177.509,29.231,180.192,21.474,208.473"/>
	<path clip-path="url(#SVGID_2_)" fill="#0E4C45" d="M131.734,228.889c-4.001-8.527,2.331-11.885,10.297-13.122
		c7.688-1.191,7.605,0.15,14.998,2.567c9.769,3.194,13.272,2.015,22.367,1.229c11.729-1.014,15.909-4.469,27.037,2.764
		c8.177,5.316,7.695,9.906,16.991,12.811c3.763,0.395,7.525,0.787,11.29,1.184c6.462,0.397,11.065,3.293,13.803,8.689
		c7.329,4.264,19.892,9.208,28.233,15.268c-3.833,11.353,51.071,33.973,47.686,34.59c-26.222,4.767-169.164-1.638-185.048-31.144
		C133.704,253.169,131.138,240.773,131.734,228.889"/>
	<path clip-path="url(#SVGID_2_)" fill="#A3BE61" d="M420.014,257.236c0,0.005-0.125-11.254-9.729,2.416
		c-12.795,18.209-73.577,18.149-97.745,23.521c-30.942,6.876-51.571-25.211-82.517-20.631
		c-30.945,4.587-127.214-64.179-135.239-93.978c-8.021-29.796-32.09-116.897-56.154-105.439c0,0-3.441,0,0,17.194
		c3.436,17.189-24.071,25.214-12.608,35.525c11.462,10.314-49.388,71.058-65.436,81.372c-5.029,3.236-3.822,50.561-4.594,73.155
		c-1.765,51.627,79.738,89.695,193.803,122.539c37.617,10.831,22.255-7.739,53.868-10.315
		C234.861,380.048,478.463,306.52,420.014,257.236"/>
	<path clip-path="url(#SVGID_2_)" fill="#F1F2F2" d="M219.105,229.715c12.263,3.978,31.802-3.561,40.443,9.194
		c-5.317,10.066-54.816,1.969-66.063,1.516c11.815-0.194,20.687,4.511,31.901,7.12c15.79,3.674,33.881,4.687,50.144,4.447
		c10.523-13.54-20.996-20.841-28.181-23.112c-13.736-4.349-81.247-32.747-86.7-19.998c18.097,9.601,34.108,12.22,53.903,16.049
		c5.77,1.114,8.147,0.495,12.483,3.155"/>
</g>
<g>
	<defs>
		<rect id="SVGID_3_" width="340" height="340"/>
	</defs>
	<clipPath id="SVGID_4_">
		<use xlink:href="#SVGID_3_"  overflow="visible"/>
	</clipPath>
	<path clip-path="url(#SVGID_4_)" fill="#FFFFFF" d="M26.845,257.249c0-8.131,1.048-15.5,3.153-22.102s5.027-12.247,8.758-16.936
		c3.729-4.688,8.153-8.3,13.274-10.836c5.118-2.533,10.74-3.804,16.865-3.804c3.826,0,7.319,0.36,10.476,1.078
		c3.157,0.717,5.955,1.699,8.395,2.941c2.439,1.245,4.595,2.633,6.461,4.161c1.864,1.532,3.467,3.158,4.807,4.881l-16.649,23.681
		c-1.243-1.626-2.634-3.086-4.164-4.377c-1.53-1.292-3.682-1.937-6.456-1.937c-2.008,0-3.804,0.572-5.383,1.722
		c-1.579,1.147-2.942,2.751-4.09,4.807c-1.149,2.06-2.008,4.521-2.585,7.392c-0.572,2.87-0.859,5.979-0.859,9.328
		c0,3.352,0.287,6.412,0.859,9.187c0.577,2.777,1.436,5.19,2.585,7.248c1.148,2.058,2.534,3.659,4.163,4.807
		c1.623,1.149,3.444,1.723,5.453,1.723c2.297,0,4.28-0.646,5.958-1.938c1.671-1.291,3.036-2.702,4.089-4.234l17.368,22.965
		c-1.438,1.914-3.113,3.71-5.027,5.382c-1.913,1.675-4.091,3.135-6.53,4.378c-2.44,1.244-5.215,2.246-8.322,3.013
		c-3.111,0.766-6.629,1.148-10.549,1.148c-6.125,0-11.747-1.291-16.865-3.875c-5.121-2.583-9.545-6.243-13.274-10.979
		c-3.731-4.735-6.653-10.381-8.758-16.935C27.893,272.585,26.845,265.287,26.845,257.249"/>
</g>
</svg>
